<?xml version="1.0" encoding="UTF-8"?>
<svg id="Layer_1" data-name="Layer 1" xmlns="http://www.w3.org/2000/svg" viewBox="0 0 1499.25 404.87">
  <g>
    <path d="M683.92,151.13h15.55l24.63,95.59h.32l22.68-95.59h20.26l22.36,95.59h.32l24.47-95.59h15.55l-31.59,113.42h-17.82l-23.5-95.91h-.32l-23.49,95.91h-17.82l-31.6-113.42Z"/>
    <path d="M844.17,151.13h77.93v13.45h-62.7v36.45h56.38v13.45h-56.38v36.62h62.87v13.45h-78.1v-113.42Z"/>
    <path d="M1004.9,251.1v13.45h-66.91v-113.42h15.06v99.97h51.85Z"/>
    <path d="M1084.29,251.1v13.45h-66.91v-113.42h15.06v99.97h51.85Z"/>
    <path d="M1112,171.38h-.32l.16,19.44v73.73h-15.06v-113.42h20.25l60.27,93h.32l-.16-19.44v-73.56h14.9v113.42h-20.09l-60.27-93.17Z"/>
    <path d="M1217.32,151.13h77.93v13.45h-62.7v36.45h56.38v13.45h-56.38v36.62h62.87v13.45h-78.1v-113.42Z"/>
    <path d="M1305.14,225.33h15.23c.97,17.98,11.83,28.19,31.11,28.19,17.98,0,28.68-9.07,28.68-23.01,0-8.59-4.05-17.17-22.85-17.17h-14.74c-24.31,0-35.81-12.8-35.81-29.98,0-20.57,16.69-34.66,43.42-34.66,28.68,0,42.45,16.36,43.59,39.37h-15.23c-.97-16.85-10.21-25.92-28.68-25.92-17.17,0-27.87,7.93-27.87,20.9,0,8.75,4.86,15.71,21.22,15.71h14.75c29.33,0,37.43,15.89,37.43,31.44,0,22.52-17.01,36.77-44.23,36.77-29.33,0-44.88-16.2-46.01-41.64Z"/>
    <path d="M1409,225.33h15.24c.97,17.98,11.83,28.19,31.11,28.19,17.98,0,28.68-9.07,28.68-23.01,0-8.59-4.05-17.17-22.85-17.17h-14.74c-24.31,0-35.81-12.8-35.81-29.98,0-20.57,16.69-34.66,43.42-34.66,28.68,0,42.45,16.36,43.59,39.37h-15.23c-.97-16.85-10.21-25.92-28.68-25.92-17.17,0-27.87,7.93-27.87,20.9,0,8.75,4.86,15.71,21.22,15.71h14.75c29.33,0,37.43,15.89,37.43,31.44,0,22.52-17.01,36.77-44.23,36.77-29.33,0-44.88-16.2-46.02-41.64Z"/>
  </g>
  <g>
    <path d="M0,378.67c0-7.19,6.77-15.22,16.9-15.22,14.37,0,15.22,11.41,17.76,18.18,2.53,7.6,5.5,16.06,13.95,16.06,19.44,0,37.62-46.5,49.45-79.87,16.91-46.5,32.12-95.11,51.98-161.46,2.11-7.19,4.64-19.86,4.64-22.4,0-3.8-.85-4.23-2.95-4.23-5.07,0-24.93,20.72-46.91,50.3l-3.38-2.96c23.66-42.27,62.55-73.12,76.49-73.12,7.61,0,12.68,6.76,13.11,15.64,0,10.14-5.92,32.54-12.26,52.41-8.88,27.88-26.63,92.97-47.34,142.42-15.64,36.76-50.29,90.44-92.97,90.44-25.78,0-38.46-12.26-38.46-26.2"/>
    <path d="M195.27,270.48c0-68.05,59.6-166.51,114.11-166.51,22.41,0,27.48,13.09,27.48,22.82,0,21.14-17.75,51.98-98.48,81.14-7.18,19.86-10.14,38.05-10.14,49.45,0,19.44,5.92,27.48,21.55,27.48,21.14,0,40.58-17.76,56.64-44.81l4.65,2.54c-11.84,25.36-50.29,66.35-84.95,66.35-15.21,0-30.86-9.71-30.86-38.45M309.8,130.59c0-12.68-5.49-18.6-11.41-18.6-14.37,0-43.52,47.33-57.9,89.6,49.03-19.86,69.31-42.69,69.31-71"/>
    <path d="M322.93,270.48c0-68.05,59.6-166.51,114.12-166.51,22.4,0,27.47,13.09,27.47,22.82,0,21.14-17.75,51.98-98.48,81.14-7.18,19.86-10.13,38.05-10.13,49.45,0,19.45,5.91,27.48,21.54,27.48,21.14,0,40.58-17.76,56.64-44.81l4.65,2.54c-11.84,25.36-50.29,66.36-84.95,66.36-15.21,0-30.86-9.72-30.86-38.46M437.47,130.59c0-12.68-5.49-18.6-11.41-18.6-14.37,0-43.52,47.33-57.9,89.6,49.03-19.86,69.31-42.69,69.31-71"/>
    <path d="M447.21,299.64c0-2.53,9.3-29.59,11.41-35.08L551.18,6.33l-27.9-1.68V0h62.98l-101.01,284.42,1.27.85c14.79-5.07,42.26-35.08,54.94-52.84l3.39,2.53c-15.22,28.75-55.79,74.39-85.79,74.39-7.61,0-11.84-4.23-11.84-9.72"/>
    <path d="M622.81,29.02h10.37c5.88,0,9.23,2.83,9.23,7.02,0,3.34-2.1,5.77-5.89,6.51v.07c3.09,1.18,4.26,3.5,5.19,6.81l1.47,5.32h-4.26l-1.18-4.48c-1.17-4.67-2.5-5.85-6.65-5.85h-4.12v10.32h-4.16v-25.73ZM631.42,40.97c4.41,0,6.69-1.54,6.69-4.41,0-2.54-1.84-4.04-5.33-4.04h-5.81v8.45h4.45Z"/>
    <path d="M633,67.33c-14.04,0-25.45-11.41-25.45-25.45s11.41-25.44,25.45-25.44,25.45,11.41,25.45,25.44-11.41,25.45-25.45,25.45M633,20.31c-11.9,0-21.57,9.68-21.57,21.57s9.67,21.58,21.57,21.58,21.58-9.68,21.58-21.58-9.68-21.57-21.58-21.57"/>
    <path d="M185.34,9.71C204.34-.63,227.11-.37,232.1.25c-.61,4.99-5.87,27.15-20.49,43.1-19,10.33-41.77,10.07-46.77,9.45.61-4.99,5.87-27.15,20.49-43.09"/>
  </g>
</svg>