<?xml version="1.0" encoding="UTF-8"?>
<svg id="Layer_1" xmlns="http://www.w3.org/2000/svg" version="1.1" viewBox="0 0 3565.4 923.1">
  <!-- Generator: Adobe Illustrator 29.1.0, SVG Export Plug-In . SVG Version: 2.1.0 Build 142)  -->
  <defs>
    <style>
      .st0 {
        fill: #4285f4;
      }

      .st1 {
        fill: #d9d9d9;
      }

      .st2 {
        fill: #34a853;
      }

      .st3, .st4, .st5, .st6 {
        fill-rule: evenodd;
      }

      .st7 {
        fill: #fbbc04;
      }

      .st8 {
        fill: #fff;
      }

      .st9 {
        fill: #ea4335;
      }

      .st4 {
        fill: #f9a000;
      }

      .st5 {
        fill: #ed0006;
      }

      .st6 {
        fill: #ff5e00;
      }
    </style>
  </defs>
  <g>
    <rect class="st8" x="161.5" y="193" width="788.6" height="537.1" rx="62.9" ry="62.9"/>
    <path class="st1" d="M887.2,735.8H224.4c-37.8,0-68.6-30.8-68.6-68.6V255.8c0-37.8,30.8-68.6,68.6-68.6h662.9c37.8,0,68.6,30.8,68.6,68.6v411.4c0,37.8-30.8,68.6-68.6,68.6ZM224.4,198.7c-31.5,0-57.1,25.6-57.1,57.1v411.4c0,31.5,25.6,57.1,57.1,57.1h662.9c31.5,0,57.1-25.6,57.1-57.1V255.8c0-31.5-25.6-57.1-57.1-57.1H224.4Z"/>
  </g>
  <g>
    <path class="st5" d="M555.8,551.6c-20.4,17.6-46.9,28.3-75.9,28.3-64.6,0-117-53-117-118.3s52.4-118.3,117-118.3,55.5,10.6,75.9,28.3c20.4-17.6,46.9-28.3,75.9-28.3,64.6,0,117,53,117,118.3s-52.4,118.3-117,118.3-55.5-10.6-75.9-28.3Z"/>
    <path class="st4" d="M555.8,551.6c25.2-21.7,41.1-54,41.1-90.1s-15.9-68.4-41.1-90.1c20.4-17.6,46.9-28.3,75.9-28.3,64.6,0,117,53,117,118.3s-52.4,118.3-117,118.3-55.5-10.6-75.9-28.3Z"/>
    <path class="st6" d="M555.8,371.5c25.2,21.7,41.1,54,41.1,90.1s-15.9,68.4-41.1,90.1c-25.2-21.7-41.1-54-41.1-90.1s15.9-68.4,41.1-90.1Z"/>
  </g>
  <g>
    <g>
      <rect class="st8" x="979.4" y="193" width="788.6" height="537.1" rx="62.9" ry="62.9"/>
      <path class="st1" d="M1705.2,735.8h-662.9c-37.8,0-68.6-30.8-68.6-68.6V255.8c0-37.8,30.8-68.6,68.6-68.6h662.9c37.8,0,68.6,30.8,68.6,68.6v411.4c0,37.8-30.8,68.6-68.6,68.6ZM1042.3,198.7c-31.5,0-57.1,25.6-57.1,57.1v411.4c0,31.5,25.6,57.1,57.1,57.1h662.9c31.5,0,57.1-25.6,57.1-57.1V255.8c0-31.5-25.6-57.1-57.1-57.1h-662.9Z"/>
    </g>
    <path class="st3" d="M1195.5,375c-6.6,7.9-17.1,14.1-27.6,13.2-1.3-10.6,3.8-22,9.9-29,6.6-8.1,18.1-13.9,27.4-14.3,1.1,11.1-3.2,22-9.7,30.1ZM1205.1,390.3c-9.3-.5-17.7,2.8-24.6,5.5-4.4,1.7-8.1,3.2-11,3.2s-7.1-1.6-11.4-3.3c-5.7-2.3-12.2-4.9-19.1-4.8-15.7.2-30.3,9.2-38.3,23.5-16.5,28.6-4.3,71,11.6,94.3,7.8,11.5,17.1,24.2,29.4,23.7,5.4-.2,9.3-1.9,13.3-3.6,4.6-2,9.4-4.1,17-4.1s11.9,2,16.3,3.9c4.2,1.8,8.2,3.6,14.2,3.5,12.7-.2,20.7-11.5,28.5-23.1,8.4-12.4,12.1-24.5,12.7-26.3v-.2c0,0,0,0-.2-.1-2.8-1.3-24.3-11.2-24.5-37.9-.2-22.4,17-33.7,19.8-35.5.2-.1.3-.2.3-.2-11-16.4-28.1-18.2-34-18.6ZM1293.2,531.1v-172.9h64.2c33.1,0,56.3,23.1,56.3,56.8s-23.6,57-57.2,57h-36.8v59.1h-26.6ZM1319.7,380.8h30.6c23,0,36.2,12.4,36.2,34.3s-13.2,34.4-36.3,34.4h-30.5v-68.7ZM1501.3,510.3c-7,13.5-22.5,22.1-39.2,22.1-24.7,0-41.9-14.9-41.9-37.3s16.7-34.9,47.5-36.8l33.1-2v-9.5c0-14.1-9.1-21.7-25.3-21.7s-23.1,7-25.1,17.6h-23.9c.8-22.4,21.6-38.7,49.8-38.7s50.1,16.1,50.1,41v86.1h-24.6v-20.7h-.5ZM1469.3,511.9c-14.2,0-23.1-6.9-23.1-17.4s8.7-17.2,25.2-18.2l29.5-1.9v9.8c0,16.2-13.6,27.7-31.6,27.7ZM1607.9,537.9c-10.6,30.3-22.8,40.3-48.7,40.3s-8.6-.2-10.1-.7v-20.7c1.6.2,5.7.4,7.8.4,11.7,0,18.3-5,22.4-18l2.4-7.7-45-125.9h27.8l31.3,102.2h.5l31.3-102.2h27l-46.6,132.2Z"/>
  </g>
  <g>
    <g>
      <rect class="st8" x="1797.4" y="193" width="788.6" height="537.1" rx="62.9" ry="62.9"/>
      <path class="st1" d="M2523.1,735.8h-662.9c-37.8,0-68.6-30.8-68.6-68.6V255.8c0-37.8,30.8-68.6,68.6-68.6h662.9c37.8,0,68.6,30.8,68.6,68.6v411.4c0,37.8-30.8,68.6-68.6,68.6ZM1860.2,198.7c-31.5,0-57.1,25.6-57.1,57.1v411.4c0,31.5,25.6,57.1,57.1,57.1h662.9c31.5,0,57.1-25.6,57.1-57.1V255.8c0-31.5-25.6-57.1-57.1-57.1h-662.9Z"/>
    </g>
    <path d="M2189.4,388.1l-31.5,147.3h-38.1l31.6-147.3h38.1ZM2349.7,483.2l20.1-55.3,11.6,55.3h-31.6ZM2392.3,535.5h35.3l-30.8-147.3h-32.7c-7.2,0-13.4,4.4-16,10.7h0c0,.1-57.2,136.6-57.2,136.6h40l8-22h48.9l4.6,22ZM2292.8,487.4c.2-38.9-53.8-41-53.4-58.4.1-5.3,5.1-10.9,16.2-12.3,2-.2,4.4-.3,6.8-.3,11.2,0,21.8,2.5,31.2,7.1l-.4-.2,6.7-31.3c-10.6-4.1-22.8-6.5-35.6-6.5h0c-37.7,0-64.2,20.1-64.4,48.7-.2,21.2,18.9,33,33.4,40.1,14.9,7.2,19.9,11.9,19.8,18.3,0,9.9-11.8,14.3-22.8,14.4-.5,0-1.1,0-1.7,0-13.7,0-26.6-3.4-37.9-9.5l.4.2-6.9,32.3c12.4,5,26.7,7.8,41.7,7.8h.7,0c40,0,66.2-19.8,66.4-50.4h0ZM2134.9,388.1l-61.8,147.3h-40.3l-30.4-117.6c-.6-5.7-4.1-10.5-9-12.9h0c-10.8-5.4-23.4-9.7-36.6-12.4l-1-.2.9-4.3h64.9c8.8,0,16.2,6.5,17.5,14.9h0c0,0,16.1,85.4,16.1,85.4l39.7-100.3h40Z"/>
  </g>
  <g>
    <g>
      <rect class="st8" x="2615.3" y="193" width="788.6" height="537.1" rx="62.9" ry="62.9"/>
      <path class="st1" d="M3341,735.8h-662.9c-37.8,0-68.6-30.8-68.6-68.6V255.8c0-37.8,30.8-68.6,68.6-68.6h662.9c37.8,0,68.6,30.8,68.6,68.6v411.4c0,37.8-30.8,68.6-68.6,68.6ZM2678.1,198.7c-31.5,0-57.1,25.6-57.1,57.1v411.4c0,31.5,25.6,57.1,57.1,57.1h662.9c31.5,0,57.1-25.6,57.1-57.1V255.8c0-31.5-25.6-57.1-57.1-57.1h-662.9Z"/>
    </g>
    <g>
      <path d="M2994.3,459v65.9h-20.9v-162.8h55.5c13.4-.3,26.3,4.8,35.9,14.1,9.7,8.8,15.2,21.3,15,34.3.3,13.2-5.2,25.8-15,34.6-9.7,9.3-21.7,13.9-35.9,13.9h-34.5ZM2994.3,382.2v56.8h35.1c7.8.2,15.3-2.8,20.7-8.4,11-10.7,11.2-28.2.5-39.2-.2-.2-.4-.4-.5-.5-5.3-5.7-12.9-8.8-20.7-8.6h-35.1ZM3127.9,409.9c15.5,0,27.7,4.1,36.6,12.4,8.9,8.3,13.4,19.6,13.4,34v68.6h-20v-15.5h-.9c-8.7,12.7-20.2,19.1-34.6,19.1s-22.5-3.6-30.8-10.9c-8-6.8-12.6-16.8-12.4-27.3,0-11.5,4.4-20.7,13.1-27.5,8.7-6.8,20.3-10.2,34.9-10.2s22.7,2.3,30.7,6.8v-4.8c0-7.2-3.1-13.9-8.6-18.5-5.5-5-12.7-7.7-20.2-7.6-11.7,0-20.9,4.9-27.7,14.8l-18.4-11.6c10.1-14.5,25.1-21.8,44.9-21.8h0ZM3100.8,490.8c0,5.4,2.6,10.5,6.9,13.6,4.6,3.6,10.4,5.6,16.2,5.5,8.8,0,17.3-3.5,23.5-9.8,6.9-6.5,10.4-14.2,10.4-23-6.5-5.2-15.6-7.8-27.3-7.8s-15.6,2-21.3,6.1c-5.7,4.2-8.6,9.2-8.6,15.3h0ZM3292.7,413.5l-69.8,160.5h-21.6l25.9-56.1-45.9-104.3h22.7l33.2,80h.5l32.3-80h22.8Z"/>
      <path class="st0" d="M2909.7,444.7c0-6.4-.5-12.7-1.6-19h-88.2v36h50.5c-2.1,11.6-8.8,21.9-18.7,28.4v23.4h30.1c17.6-16.2,27.8-40.3,27.8-68.8h0Z"/>
      <path class="st2" d="M2819.9,536.1c25.2,0,46.5-8.3,62-22.6l-30.1-23.4c-8.4,5.7-19.2,8.9-31.8,8.9-24.4,0-45.1-16.4-52.5-38.6h-31v24.1c15.9,31.6,48.2,51.5,83.5,51.5Z"/>
      <path class="st7" d="M2767.5,460.5c-3.9-11.6-3.9-24.2,0-35.8v-24.1h-31c-13.3,26.4-13.3,57.6,0,84l31-24.1Z"/>
      <path class="st9" d="M2819.9,386.1c13.3-.2,26.2,4.8,35.9,14l26.7-26.7c-16.9-15.9-39.3-24.6-62.6-24.4-35.3,0-67.7,19.9-83.5,51.5l31,24.1c7.4-22.2,28.1-38.6,52.5-38.6Z"/>
    </g>
  </g>
</svg>